<?xml version='1.0' encoding='UTF-8' standalone='no'?>
<!-- Created with Fritzing (https://fritzing.org/) -->
<svg xmlns="http://www.w3.org/2000/svg" baseProfile="tiny" height="2.59751in" version="1.2" viewBox="0 0 225.829 187.021" width="3.13652in" x="0in"  xmlns:svg="http://www.w3.org/2000/svg" y="0in">
 <rect width="100%" height="100%" fill="#ffffff" />
 <g id="watermark" >
  <g >
   <g >
    <path d="M201.097,180.821c-0.604,0,-1.131,0.325,-1.422,0.809l-2.796,0l3.96,-4.071c0.146,-0.146,0.289,-0.322,0.428,-0.521c0.149,-0.222,0.228,-0.479,0.228,-0.768c0,-0.279,-0.097,-0.518,-0.287,-0.71c-0.19,-0.188,-0.444,-0.287,-0.754,-0.287l-4.636,0c-0.305,0,-0.555,0.06,-0.742,0.17c-0.219,0.13,-0.33,0.368,-0.33,0.707c0,0.329,0.111,0.562,0.33,0.692c0.188,0.111,0.438,0.168,0.742,0.168l3.148,0l-3.974,4.086c-0.146,0.147,-0.289,0.315,-0.425,0.504c-0.153,0.212,-0.23,0.472,-0.23,0.771c0,0.28,0.096,0.521,0.288,0.711c0.188,0.188,0.442,0.285,0.754,0.285l4.315,0c0.293,0.467,0.812,0.776,1.4,0.776c0.916,0,1.66,-0.744,1.66,-1.661C202.756,181.566,202.011,180.821,201.097,180.821zM201.097,183.084c-0.334,0,-0.604,-0.271,-0.604,-0.604c0,-0.333,0.27,-0.604,0.604,-0.604c0.332,0,0.604,0.271,0.604,0.604C201.7,182.815,201.429,183.084,201.097,183.084z" fill="#8C8C8C" />
    <path d="M184.154,170.779c-0.914,0,-1.659,0.745,-1.659,1.66c0,0.916,0.745,1.66,1.659,1.66s1.658,-0.744,1.658,-1.66C185.814,171.524,185.07,170.779,184.154,170.779zM184.155,173.042c-0.333,0,-0.604,-0.27,-0.604,-0.603s0.271,-0.603,0.604,-0.603c0.331,0,0.604,0.27,0.604,0.603S184.486,173.042,184.155,173.042z" fill="#8C8C8C" />
    <path d="M192.675,175.441c-0.193,-0.111,-0.439,-0.169,-0.732,-0.169l-1.465,0L190.478,172.75c0,-0.292,-0.057,-0.538,-0.166,-0.729C190.222,171.864,190.029,171.679,189.619,171.679c-0.34,0,-0.578,0.116,-0.709,0.342c-0.109,0.193,-0.167,0.438,-0.167,0.729l0,2.521l-0.481,0c-0.295,0,-0.539,0.06,-0.731,0.169c-0.228,0.129,-0.341,0.368,-0.341,0.708c0,0.412,0.185,0.603,0.341,0.692c0.192,0.111,0.438,0.168,0.731,0.168l0.481,0l0,4.362c0,0.277,0.026,0.533,0.081,0.768c0.056,0.246,0.154,0.464,0.298,0.645c0.146,0.186,0.345,0.332,0.595,0.436c0.241,0.098,0.555,0.146,0.93,0.146l0.896,0c0.292,0,0.539,-0.054,0.731,-0.166c0.154,-0.089,0.341,-0.281,0.341,-0.693c0,-0.338,-0.114,-0.578,-0.341,-0.709c-0.192,-0.109,-0.439,-0.168,-0.731,-0.168l-0.821,0c-0.138,0,-0.19,-0.019,-0.207,-0.024c-0.014,-0.034,-0.035,-0.103,-0.035,-0.231L190.48,177.009l1.465,0c0.295,0,0.541,-0.057,0.734,-0.168c0.152,-0.09,0.34,-0.28,0.34,-0.692C193.015,175.809,192.902,175.57,192.675,175.441z" fill="#8C8C8C" />
    <path d="M184.22,175.271l-1.191,0c-0.292,0,-0.538,0.059,-0.731,0.169c-0.226,0.129,-0.341,0.368,-0.341,0.708c0,0.412,0.188,0.604,0.341,0.691c0.193,0.113,0.439,0.168,0.731,0.168l0.544,0l0,5.362c0,0.293,0.057,0.539,0.167,0.73c0.131,0.227,0.367,0.341,0.708,0.341c0.411,0,0.604,-0.187,0.692,-0.341c0.111,-0.191,0.168,-0.438,0.168,-0.73L185.308,176.359c0,-0.386,-0.084,-0.656,-0.256,-0.83C184.877,175.357,184.607,175.271,184.22,175.271z" fill="#8C8C8C" />
    <path d="M180.385,175.441c-0.193,-0.111,-0.44,-0.169,-0.732,-0.169l-0.604,0c-0.25,0,-0.498,0.063,-0.734,0.187c-0.226,0.119,-0.433,0.271,-0.616,0.453l-0.644,0.604l0,-0.247c0,-0.291,-0.055,-0.538,-0.168,-0.729c-0.128,-0.228,-0.368,-0.34,-0.707,-0.34c-0.41,0,-0.604,0.184,-0.693,0.34c-0.11,0.191,-0.167,0.438,-0.167,0.729l0,4.801c-0.475,0.293,-0.791,0.816,-0.791,1.412c0,0.917,0.745,1.661,1.658,1.661c0.916,0,1.66,-0.744,1.66,-1.661c0,-0.596,-0.317,-1.119,-0.792,-1.412l0,-2.21l1.738,-1.564c0.1,-0.09,0.199,-0.164,0.297,-0.217c0.084,-0.045,0.174,-0.067,0.274,-0.067l0.288,0c0.292,0,0.539,-0.056,0.732,-0.169c0.155,-0.088,0.339,-0.279,0.339,-0.691C180.725,175.809,180.61,175.57,180.385,175.441zM176.186,183.084c-0.332,0,-0.603,-0.271,-0.603,-0.604c0,-0.333,0.271,-0.604,0.603,-0.604c0.333,0,0.604,0.271,0.604,0.604C176.79,182.815,176.519,183.084,176.186,183.084z" fill="#8C8C8C" />
    <path d="M173.669,171.922c-0.193,-0.111,-0.44,-0.167,-0.731,-0.167l-0.59,0c-0.2,0,-0.389,0.004,-0.562,0.016c-0.176,0.009,-0.345,0.035,-0.506,0.07c-0.168,0.041,-0.336,0.109,-0.496,0.202c-0.158,0.093,-0.319,0.222,-0.48,0.382c-0.334,0.314,-0.554,0.656,-0.652,1.017c-0.094,0.348,-0.143,0.735,-0.143,1.151l0,0.678l-0.483,0c-0.292,0,-0.539,0.059,-0.73,0.169c-0.227,0.13,-0.342,0.369,-0.342,0.708c0,0.412,0.185,0.604,0.341,0.693c0.191,0.111,0.438,0.166,0.73,0.166l0.483,0l0,5.362c0,0.293,0.057,0.539,0.167,0.73c0.13,0.227,0.367,0.341,0.708,0.341c0.411,0,0.603,-0.187,0.692,-0.341c0.111,-0.191,0.168,-0.438,0.168,-0.73l0,-5.36l0.92,0c0.293,0,0.54,-0.057,0.732,-0.168c0.155,-0.09,0.34,-0.28,0.34,-0.692c0,-0.34,-0.114,-0.579,-0.34,-0.708c-0.189,-0.111,-0.436,-0.17,-0.729,-0.17l-0.92,0l0,-0.678c0,-0.218,0.019,-0.41,0.056,-0.571c0.032,-0.141,0.103,-0.261,0.218,-0.367l0.002,-0.004l0.002,-0.002c0.082,-0.082,0.176,-0.126,0.29,-0.136c0.15,-0.015,0.339,-0.022,0.564,-0.022l0.56,0c0.291,0,0.539,-0.058,0.731,-0.168c0.154,-0.088,0.339,-0.281,0.339,-0.693C174.009,172.291,173.894,172.052,173.669,171.922z" fill="#8C8C8C" />
    <path d="M225.662,175.539c-0.089,-0.156,-0.282,-0.34,-0.693,-0.34c-0.339,0,-0.578,0.113,-0.707,0.34c-0.078,0.133,-0.127,0.293,-0.152,0.477l-0.021,-0.021c-0.216,-0.236,-0.466,-0.42,-0.747,-0.539c-0.277,-0.119,-0.563,-0.183,-0.849,-0.183l-0.709,0c-0.249,0,-0.466,0.015,-0.64,0.041c-0.182,0.026,-0.352,0.074,-0.51,0.14c-0.158,0.066,-0.313,0.15,-0.459,0.254c-0.139,0.097,-0.303,0.226,-0.486,0.377c-0.188,0.156,-0.342,0.302,-0.463,0.434c-0.127,0.141,-0.23,0.293,-0.306,0.455c-0.069,0.16,-0.122,0.337,-0.147,0.523c-0.026,0.178,-0.041,0.391,-0.041,0.631l0,2.386c0,0.24,0.015,0.451,0.041,0.631c0.025,0.188,0.078,0.361,0.147,0.521c0.074,0.164,0.179,0.318,0.306,0.457c0.119,0.129,0.274,0.274,0.463,0.433c0.186,0.153,0.35,0.28,0.486,0.379c0.146,0.103,0.299,0.188,0.459,0.254c0.158,0.065,0.329,0.112,0.51,0.14c0.174,0.026,0.389,0.039,0.64,0.039l0.709,0c0.298,0,0.591,-0.066,0.87,-0.199c0.244,-0.114,0.492,-0.291,0.73,-0.523l0,1.434c0,0.18,-0.025,0.334,-0.072,0.465c-0.043,0.119,-0.159,0.258,-0.344,0.406c-0.154,0.127,-0.309,0.217,-0.457,0.264c-0.15,0.049,-0.341,0.074,-0.563,0.074l-2.203,0c-0.293,0,-0.538,0.055,-0.732,0.166c-0.152,0.088,-0.34,0.282,-0.34,0.692c0,0.341,0.115,0.579,0.34,0.71c0.194,0.109,0.439,0.167,0.732,0.167l2.326,0c0.247,0,0.463,-0.015,0.638,-0.041c0.179,-0.026,0.351,-0.073,0.513,-0.14c0.153,-0.064,0.31,-0.15,0.455,-0.254c0.143,-0.101,0.305,-0.227,0.487,-0.379c0.185,-0.153,0.343,-0.299,0.463,-0.431c0.128,-0.141,0.229,-0.294,0.304,-0.456c0.071,-0.162,0.123,-0.338,0.148,-0.523c0.025,-0.182,0.041,-0.393,0.041,-0.631l0,-7.898C225.829,175.977,225.775,175.73,225.662,175.539zM224.093,179.999c0,0.188,-0.062,0.35,-0.188,0.49c-0.15,0.172,-0.394,0.403,-0.716,0.686l-0.002,0.003l-0.002,0.004c-0.139,0.13,-0.291,0.237,-0.453,0.325c-0.148,0.082,-0.325,0.121,-0.526,0.121L221.905,181.628c-0.222,0,-0.41,-0.021,-0.563,-0.072c-0.148,-0.049,-0.301,-0.137,-0.453,-0.264c-0.231,-0.186,-0.315,-0.322,-0.346,-0.404c-0.049,-0.131,-0.072,-0.285,-0.072,-0.465l0,-2.206c0,-0.18,0.023,-0.336,0.072,-0.467c0.029,-0.082,0.113,-0.217,0.346,-0.403c0.152,-0.127,0.305,-0.216,0.453,-0.265c0.153,-0.049,0.342,-0.072,0.563,-0.072l0.301,0c0.212,0,0.388,0.037,0.526,0.113c0.152,0.082,0.308,0.191,0.457,0.324c0.322,0.293,0.564,0.529,0.716,0.7c0.128,0.146,0.188,0.304,0.188,0.492L224.093,179.999z" fill="#8C8C8C" />
    <path d="M205.683,170.779c-0.914,0,-1.66,0.745,-1.66,1.66c0,0.916,0.746,1.66,1.66,1.66s1.66,-0.744,1.66,-1.66C207.343,171.524,206.597,170.779,205.683,170.779zM205.683,173.042c-0.332,0,-0.604,-0.27,-0.604,-0.603s0.271,-0.603,0.604,-0.603s0.604,0.27,0.604,0.603C206.287,172.772,206.015,173.042,205.683,173.042z" fill="#8C8C8C" />
    <path d="M216.369,181.047l-0.107,-3.419c-0.011,-0.178,-0.021,-0.338,-0.031,-0.489c-0.01,-0.162,-0.037,-0.322,-0.082,-0.476c-0.045,-0.158,-0.11,-0.309,-0.198,-0.453c-0.093,-0.146,-0.216,-0.289,-0.37,-0.42c-0.225,-0.192,-0.443,-0.334,-0.646,-0.416c-0.207,-0.084,-0.461,-0.127,-0.754,-0.127l-1.012,0c-0.259,0,-0.501,0.058,-0.716,0.164c-0.197,0.098,-0.39,0.203,-0.572,0.315l-0.003,0.002l-0.003,0.003l-0.837,0.555l0,-0.041c0,-0.291,-0.057,-0.539,-0.168,-0.733c-0.129,-0.226,-0.367,-0.339,-0.707,-0.339c-0.411,0,-0.604,0.185,-0.693,0.339c-0.109,0.194,-0.168,0.438,-0.168,0.733l0,6.099c0,0.295,0.059,0.539,0.168,0.734c0.09,0.153,0.282,0.338,0.693,0.338c0.34,0,0.578,-0.114,0.707,-0.338c0.111,-0.195,0.168,-0.439,0.168,-0.734L211.038,178.309l1.953,-1.215c0.04,-0.024,0.082,-0.048,0.121,-0.063c0.031,-0.016,0.07,-0.025,0.115,-0.031c0.049,-0.012,0.117,-0.016,0.195,-0.016l0.362,0c0.188,0,0.334,0.021,0.435,0.059c0.082,0.029,0.143,0.076,0.18,0.143c0.05,0.078,0.08,0.18,0.098,0.303c0.02,0.139,0.034,0.309,0.045,0.504l0.096,3.097c-0.457,0.297,-0.762,0.811,-0.762,1.394c0,0.917,0.746,1.661,1.66,1.661c0.916,0,1.66,-0.744,1.66,-1.661C217.195,181.872,216.862,181.334,216.369,181.047zM215.535,183.084c-0.334,0,-0.602,-0.271,-0.602,-0.604c0,-0.333,0.268,-0.604,0.602,-0.604c0.333,0,0.604,0.271,0.604,0.604C216.14,182.815,215.868,183.084,215.535,183.084z" fill="#8C8C8C" />
    <path d="M205.746,175.271l-1.193,0c-0.293,0,-0.539,0.059,-0.731,0.169c-0.226,0.129,-0.341,0.368,-0.341,0.708c0,0.412,0.186,0.604,0.341,0.691c0.192,0.113,0.438,0.168,0.731,0.168l0.545,0l0,5.362c0,0.293,0.055,0.539,0.168,0.73c0.127,0.227,0.365,0.341,0.707,0.341c0.41,0,0.604,-0.187,0.691,-0.341c0.111,-0.191,0.17,-0.438,0.17,-0.73L206.834,176.359c0,-0.386,-0.085,-0.656,-0.259,-0.83C206.403,175.357,206.13,175.271,205.746,175.271z" fill="#8C8C8C" />
   </g>
  </g>
 </g>
 <g partID="59980">
  <g transform="translate(8.24329,5.6)">
   <g id="schematic">
    <rect fill="#FDFDFD" gorn="0.1" height="115.308" id="outline" stroke="#393738" stroke-width="0.9" width="64.907" x="7.648"/>
    <g fill="none" gorn="0.2" id="pins">
     <line gorn="0.2.0" id="connector29pin" stroke="#565656" stroke-linecap="round" stroke-width="1" x1="0.486" x2="7.35" y1="108.048" y2="108.048"/>
     <g gorn="0.2.1" height="0.00199997" id="connector29terminal" stroke-width="0" width="0.015728" x="-0.021864" y="108.048"/>
     <rect gorn="0.2.2" height="0.00199997" id="connector30terminal" stroke-width="0" width="0.015728" x="-0.021864" y="108.048"/>
     <line gorn="0.2.3" id="connector28pin" stroke="#565656" stroke-linecap="round" stroke-width="1" x1="0.486" x2="7.35" y1="100.848" y2="100.848"/>
     <g gorn="0.2.4" height="0.00199997" id="connector28terminal" stroke-width="0" width="0.015728" x="-0.021864" y="100.848"/>
     <rect height="0.00199997" stroke-width="0" width="0.015728" x="-0.021864" y="100.848"/>
     <line gorn="0.2.6" id="connector27pin" stroke="#565656" stroke-linecap="round" stroke-width="1" x1="0.473" x2="7.336" y1="93.6494" y2="93.6494"/>
     <g gorn="0.2.7" height="0.00199997" id="connector27terminal" stroke-width="0" width="0.015726" x="-0.034863" y="93.6484"/>
     <rect height="0.00199997" stroke-width="0" width="0.015726" x="-0.034863" y="93.6484"/>
     <line gorn="0.2.9" id="connector26pin" stroke="#565656" stroke-linecap="round" stroke-width="1" x1="7.336" x2="0.473" y1="86.4505" y2="86.4505"/>
     <g gorn="0.2.10" height="0.00199997" id="connector26terminal" stroke-width="0" width="0.015726" x="-0.034863" y="86.4495"/>
     <rect height="0.00199997" stroke-width="0" width="0.015726" x="-0.034863" y="86.4495"/>
     <line gorn="0.2.12" id="connector25pin" stroke="#565656" stroke-linecap="round" stroke-width="1" x1="7.343" x2="0.507" y1="79.2696" y2="79.2696"/>
     <g gorn="0.2.13" height="0.00199997" id="connector25terminal" stroke-width="0" width="0.015672" x="-0.000836" y="79.2686"/>
     <rect height="0.00199997" stroke-width="0" width="0.015672" x="-0.000836" y="79.2686"/>
     <line gorn="0.2.15" id="connector24pin" stroke="#565656" stroke-linecap="round" stroke-width="1" x1="0.507" x2="7.372" y1="72.0518" y2="72.0518"/>
     <g gorn="0.2.16" height="0.00199997" id="connector24terminal" stroke-width="0" width="0.01573" x="-0.000865" y="72.0508"/>
     <rect height="0.00199997" stroke-width="0" width="0.01573" x="-0.000865" y="72.0508"/>
     <line gorn="0.2.18" id="connector23pin" stroke="#565656" stroke-linecap="round" stroke-width="1" x1="7.385" x2="0.488" y1="64.8699" y2="64.8699"/>
     <g gorn="0.2.19" height="0.00199997" id="connector23terminal" stroke-width="0" width="0.015794" x="-0.019897" y="64.8689"/>
     <rect height="0.00199997" stroke-width="0" width="0.015794" x="-0.019897" y="64.8689"/>
     <line gorn="0.2.21" id="connector22pin" stroke="#565656" stroke-linecap="round" stroke-width="1" x1="7.369" x2="0.474" y1="57.67" y2="57.67"/>
     <g gorn="0.2.22" height="0.00199997" id="connector22terminal" stroke-width="0" width="0.01579" x="-0.033895" y="57.669"/>
     <rect height="0.00199997" stroke-width="0" width="0.01579" x="-0.033895" y="57.669"/>
     <line gorn="0.2.24" id="connector21pin" stroke="#565656" stroke-linecap="round" stroke-width="1" x1="7.369" x2="0.474" y1="50.4701" y2="50.4701"/>
     <g gorn="0.2.25" height="0.00199997" id="connector21terminal" stroke-width="0" width="0.01579" x="-0.033895" y="50.4691"/>
     <rect height="0.00199997" stroke-width="0" width="0.01579" x="-0.033895" y="50.4691"/>
     <line gorn="0.2.27" id="connector20pin" stroke="#565656" stroke-linecap="round" stroke-width="1" x1="0.474" x2="7.369" y1="43.2702" y2="43.2702"/>
     <g gorn="0.2.28" height="0.00199997" id="connector20terminal" stroke-width="0" width="0.01579" x="-0.033895" y="43.2692"/>
     <rect height="0.00199997" stroke-width="0" width="0.01579" x="-0.033895" y="43.2692"/>
     <line gorn="0.2.30" id="connector19pin" stroke="#565656" stroke-linecap="round" stroke-width="1" x1="7.385" x2="0.488" y1="36.0694" y2="36.0694"/>
     <g gorn="0.2.31" height="0.00199997" id="connector19terminal" stroke-width="0" width="0.015794" x="-0.019897" y="36.0684"/>
     <rect height="0.00199997" stroke-width="0" width="0.015794" x="-0.019897" y="36.0684"/>
     <line gorn="0.2.33" id="connector18pin" stroke="#565656" stroke-linecap="round" stroke-width="1" x1="7.354" x2="0.49" y1="28.8535" y2="28.8535"/>
     <g gorn="0.2.34" height="0.00199997" id="connector18terminal" stroke-width="0" width="0.015728" x="-0.017864" y="28.8525"/>
     <rect height="0.00199997" stroke-width="0" width="0.015728" x="-0.017864" y="28.8525"/>
     <line gorn="0.2.36" id="connector17pin" stroke="#565656" stroke-linecap="round" stroke-width="1" x1="7.372" x2="0.507" y1="21.6516" y2="21.6516"/>
     <g gorn="0.2.37" height="0.00199997" id="connector17terminal" stroke-width="0" width="0.01573" x="-0.000865" y="21.6506"/>
     <rect height="0.00199997" stroke-width="0" width="0.01573" x="-0.000865" y="21.6506"/>
     <line gorn="0.2.39" id="connector16pin" stroke="#565656" stroke-linecap="round" stroke-width="1" x1="7.385" x2="0.488" y1="14.4707" y2="14.4707"/>
     <g gorn="0.2.40" height="0.00199997" id="connector16terminal" stroke-width="0" width="0.015794" x="-0.019897" y="14.4697"/>
     <rect height="0.00199997" stroke-width="0" width="0.015794" x="-0.019897" y="14.4697"/>
     <line gorn="0.2.42" id="connector15pin" stroke="#565656" stroke-linecap="round" stroke-width="1" x1="7.372" x2="0.507" y1="7.25287" y2="7.25287"/>
     <g gorn="0.2.43" height="0.00199997" id="connector15terminal" stroke-width="0" width="0.01573" x="-0.000865" y="7.25187"/>
     <rect height="0.00199997" stroke-width="0" width="0.01573" x="-0.000865" y="7.25187"/>
     <line gorn="0.2.45" id="connector14pin" stroke="#565656" stroke-linecap="round" stroke-width="1" x1="79.709" x2="72.844" y1="7.25287" y2="7.25287"/>
     <g gorn="0.2.46" height="0.00199997" id="connector14terminal" stroke-width="0" width="0.01573" x="80.201" y="7.25187"/>
     <rect height="0.00199997" stroke-width="0" width="0.01573" x="80.201" y="7.25187"/>
     <line gorn="0.2.48" id="connector13pin" stroke="#565656" stroke-linecap="round" stroke-width="1" x1="79.709" x2="72.844" y1="14.4517" y2="14.4517"/>
     <g gorn="0.2.49" height="0.00199997" id="connector13terminal" stroke-width="0" width="0.01573" x="80.201" y="14.4507"/>
     <rect height="0.00199997" stroke-width="0" width="0.01573" x="80.201" y="14.4507"/>
     <line gorn="0.2.51" id="connector12pin" stroke="#565656" stroke-linecap="round" stroke-width="1" x1="79.709" x2="72.844" y1="21.6516" y2="21.6516"/>
     <g gorn="0.2.52" height="0.00199997" id="connector12terminal" stroke-width="0" width="0.01573" x="80.201" y="21.6506"/>
     <rect height="0.00199997" stroke-width="0" width="0.01573" x="80.201" y="21.6506"/>
     <line gorn="0.2.54" id="connector11pin" stroke="#565656" stroke-linecap="round" stroke-width="1" x1="79.709" x2="72.844" y1="28.8535" y2="28.8535"/>
     <g height="0.00199997" id="connector11terminal" stroke-width="0" width="0.01573" x="80.201" y="28.8525"/>
     <rect height="0.00199997" stroke-width="0" width="0.01573" x="80.201" y="28.8525"/>
     <rect height="0.00199997" stroke-width="0" width="0.01573" x="80.201" y="28.8525"/>
     <line gorn="0.2.57" id="connector10pin" stroke="#565656" stroke-linecap="round" stroke-width="1" x1="79.709" x2="72.844" y1="36.0514" y2="36.0514"/>
     <g gorn="0.2.58" height="0.00199997" id="connector10terminal" stroke-width="0" width="0.01573" x="80.201" y="36.0504"/>
     <rect height="0.00199997" stroke-width="0" width="0.01573" x="80.201" y="36.0504"/>
     <line gorn="0.2.60" id="connector9pin" stroke="#565656" stroke-linecap="round" stroke-width="1" x1="72.844" x2="79.68" y1="43.2702" y2="43.2702"/>
     <g gorn="0.2.61" height="0.00199997" id="connector9terminal" stroke-width="0" width="0.015672" x="80.172" y="43.2692"/>
     <rect height="0.00199997" stroke-width="0" width="0.015672" x="80.172" y="43.2692"/>
     <line gorn="0.2.63" id="connector8pin" stroke="#565656" stroke-linecap="round" stroke-width="1" x1="72.844" x2="79.709" y1="50.4501" y2="50.4501"/>
     <g gorn="0.2.64" height="0.00199997" id="connector8terminal" stroke-width="0" width="0.01573" x="80.201" y="50.4491"/>
     <rect height="0.00199997" stroke-width="0" width="0.01573" x="80.201" y="50.4491"/>
     <line gorn="0.2.66" id="connector7pin" stroke="#565656" stroke-linecap="round" stroke-width="1" x1="72.844" x2="79.709" y1="57.651" y2="57.651"/>
     <g gorn="0.2.67" height="0.00199997" id="connector7terminal" stroke-width="0" width="0.01573" x="80.201" y="57.65"/>
     <line gorn="0.2.68" id="connector6pin" stroke="#565656" stroke-linecap="round" stroke-width="1" x1="72.844" x2="79.709" y1="64.8529" y2="64.8529"/>
     <g gorn="0.2.69" height="0.00199997" id="connector6terminal" stroke-width="0" width="0.01573" x="80.201" y="64.8519"/>
     <line gorn="0.2.70" id="connector5pin" stroke="#565656" stroke-linecap="round" stroke-width="1" x1="79.709" x2="72.844" y1="72.0508" y2="72.0508"/>
     <g gorn="0.2.71" height="0.00199997" id="connector5terminal" stroke-width="0" width="0.01573" x="80.201" y="72.0498"/>
     <line gorn="0.2.72" id="connector4pin" stroke="#565656" stroke-linecap="round" stroke-width="1" x1="79.709" x2="72.844" y1="79.2506" y2="79.2506"/>
     <g gorn="0.2.73" height="0.00199997" id="connector4terminal" stroke-width="0" width="0.01573" x="80.201" y="79.2496"/>
     <line gorn="0.2.74" id="connector3pin" stroke="#565656" stroke-linecap="round" stroke-width="1" x1="79.709" x2="72.844" y1="86.4505" y2="86.4505"/>
     <g gorn="0.2.75" height="0.00199997" id="connector3terminal" stroke-width="0" width="0.01573" x="80.201" y="86.4495"/>
     <line gorn="0.2.76" id="connector2pin" stroke="#565656" stroke-linecap="round" stroke-width="1" x1="79.709" x2="72.844" y1="93.6494" y2="93.6494"/>
     <g gorn="0.2.77" height="0.00199997" id="connector2terminal" stroke-width="0" width="0.01573" x="80.201" y="93.6484"/>
     <line gorn="0.2.78" id="connector1pin" stroke="#565656" stroke-linecap="round" stroke-width="1" x1="72.844" x2="79.68" y1="100.868" y2="100.868"/>
     <g gorn="0.2.79" height="0.00199997" id="connector1terminal" stroke-width="0" width="0.015672" x="80.172" y="100.868"/>
     <line gorn="0.2.80" id="connector0pin" stroke="#565656" stroke-linecap="round" stroke-width="1" x1="72.848" x2="79.743" y1="108.048" y2="108.048"/>
     <g gorn="0.2.81" height="0.00199997" id="connector0terminal" stroke-width="0" width="0.01579" x="80.235" y="108.048"/>
    </g>
    <g gorn="0.3" id="pin_numbers">
     <g transform="matrix(1, 0, 0, 1, 2.0469, 106.748)">
      <g>
       <text fill="#565656" font-family="Noto Sans" font-size="3" gorn="0.3.0.0.0.0.0.0.0" id="_x33_0">30</text>
      </g>
     </g>
     <g transform="matrix(1.026, 0, 0, 1, 2.0459, 99.5513)">
      <g>
       <text fill="#565656" font-family="Noto Sans" font-size="3" gorn="0.3.1.0.0.0.0.0.0" id="_x32_9">29</text>
      </g>
     </g>
     <g transform="matrix(1, 0, 0, 1, 2.0464, 92.3744)">
      <g>
       <text fill="#565656" font-family="Noto Sans" font-size="3" gorn="0.3.2.0.0.0.0.0.0" id="_x32_8">28</text>
      </g>
     </g>
     <g transform="matrix(1, 0, 0, 1, 2.0464, 85.1515)">
      <g>
       <text fill="#565656" font-family="Noto Sans" font-size="3" gorn="0.3.3.0.0.0.0.0.0" id="_x32_7">27</text>
      </g>
     </g>
     <g transform="matrix(1, 0, 0, 1, 2.0464, 77.9766)">
      <g>
       <text fill="#565656" font-family="Noto Sans" font-size="3" gorn="0.3.4.0.0.0.0.0.0" id="_x32_6">26</text>
      </g>
     </g>
     <g transform="matrix(1, 0, 0, 1, 2.0464, 70.7768)">
      <g>
       <text fill="#565656" font-family="Noto Sans" font-size="3" gorn="0.3.5.0.0.0.0.0.0" id="_x32_5">25</text>
      </g>
     </g>
     <g transform="matrix(1, 0, 0, 1, 2.0464, 63.5509)">
      <g>
       <text fill="#565656" font-family="Noto Sans" font-size="3" gorn="0.3.6.0.0.0.0.0.0" id="_x32_4">24</text>
      </g>
     </g>
     <g transform="matrix(1, 0, 0, 1, 1.9458, 56.351)">
      <g>
       <text fill="#565656" font-family="Noto Sans" font-size="3" gorn="0.3.7.0.0.0.0.0.0" id="_x32_3">23</text>
      </g>
     </g>
     <g transform="matrix(1, 0, 0, 1, 1.9458, 49.1521)">
      <g>
       <text fill="#565656" font-family="Noto Sans" font-size="3" gorn="0.3.8.0.0.0.0.0.0" id="_x32_2">22</text>
      </g>
     </g>
     <g transform="matrix(1, 0, 0, 1, 1.9458, 41.9773)">
      <g>
       <text fill="#565656" font-family="Noto Sans" font-size="3" gorn="0.3.9.0.0.0.0.0.0" id="_x32_1">21</text>
      </g>
     </g>
     <g transform="matrix(1, 0, 0, 1, 1.9458, 34.7504)">
      <g>
       <text fill="#565656" font-family="Noto Sans" font-size="3" gorn="0.3.10.0.0.0.0.0.0" id="_x32_0">20</text>
      </g>
     </g>
     <g transform="matrix(1, 0, 0, 1, 1.9458, 27.6375)">
      <g>
       <text fill="#565656" font-family="Noto Sans" font-size="3" gorn="0.3.11.0.0.0.0.0.0" id="_x31_9">19</text>
      </g>
     </g>
     <g transform="matrix(1, 0, 0, 1, 1.9458, 20.4346)">
      <g>
       <text fill="#565656" font-family="Noto Sans" font-size="3" gorn="0.3.12.0.0.0.0.0.0" id="_x31_8">18</text>
      </g>
     </g>
     <g transform="matrix(1, 0, 0, 1, 1.9458, 13.2628)">
      <g>
       <text fill="#565656" font-family="Noto Sans" font-size="3" gorn="0.3.13.0.0.0.0.0.0" id="_x31_7">17</text>
      </g>
     </g>
     <g transform="matrix(1, 0, 0, 1, 1.9458, 6.036)">
      <g>
       <text fill="#565656" font-family="Noto Sans" font-size="3" gorn="0.3.14.0.0.0.0.0.0" id="_x31_6">16</text>
      </g>
     </g>
     <g transform="matrix(1, 0, 0, 1, 74.385, 5.8759)">
      <g>
       <text fill="#565656" font-family="Noto Sans" font-size="3" gorn="0.3.15.0.0.0.0.0.0" id="_x31_5">15</text>
      </g>
     </g>
     <g transform="matrix(1, 0, 0, 1, 74.385, 13.1018)">
      <g>
       <text fill="#565656" font-family="Noto Sans" font-size="3" gorn="0.3.16.0.0.0.0.0.0" id="_x31_4">14</text>
      </g>
     </g>
     <g transform="matrix(1, 0, 0, 1, 74.385, 20.2776)">
      <g>
       <text fill="#565656" font-family="Noto Sans" font-size="3" gorn="0.3.17.0.0.0.0.0.0" id="_x31_3">13</text>
      </g>
     </g>
     <g transform="matrix(1, 0, 0, 1, 74.385, 27.5005)">
      <g>
       <text fill="#565656" font-family="Noto Sans" font-size="3" gorn="0.3.18.0.0.0.0.0.0" id="_x31_2">12</text>
      </g>
     </g>
     <g transform="matrix(1, 0, 0, 1, 74.385, 34.7504)">
      <g>
       <text fill="#565656" font-family="Noto Sans" font-size="3" gorn="0.3.19.0.0.0.0.0.0" id="_x31_1">11</text>
      </g>
     </g>
     <g transform="matrix(1, 0, 0, 1, 74.385, 41.9773)">
      <g>
       <text fill="#565656" font-family="Noto Sans" font-size="3" gorn="0.3.20.0.0.0.0.0.0" id="_x31_0">10</text>
      </g>
     </g>
     <g transform="matrix(1, 0, 0, 1, 75.772, 49.1521)">
      <g>
       <text fill="#565656" font-family="Noto Sans" font-size="3" gorn="0.3.21.0.0.0.0.0.0" id="_x39_">9</text>
      </g>
     </g>
     <g transform="matrix(1, 0, 0, 1, 75.772, 56.375)">
      <g>
       <text fill="#565656" font-family="Noto Sans" font-size="3" gorn="0.3.22.0.0.0.0.0.0" id="_x38_">8</text>
      </g>
     </g>
     <g transform="matrix(1, 0, 0, 1, 75.772, 63.5779)">
      <g>
       <text fill="#565656" font-family="Noto Sans" font-size="3" gorn="0.3.23.0.0.0.0.0.0" id="_x37_">7</text>
      </g>
     </g>
     <g transform="matrix(1, 0, 0, 1, 75.772, 70.7658)">
      <g>
       <text fill="#565656" font-family="Noto Sans" font-size="3" gorn="0.3.24.0.0.0.0.0.0" id="_x36_">6</text>
      </g>
     </g>
     <g transform="matrix(1, 0, 0, 1, 75.772, 77.9526)">
      <g>
       <text fill="#565656" font-family="Noto Sans" font-size="3" gorn="0.3.25.0.0.0.0.0.0" id="_x35_">5</text>
      </g>
     </g>
     <g transform="matrix(1, 0, 0, 1, 75.772, 85.1515)">
      <g>
       <text fill="#565656" font-family="Noto Sans" font-size="3" gorn="0.3.26.0.0.0.0.0.0" id="_x34_">4</text>
      </g>
     </g>
     <g transform="matrix(1, 0, 0, 1, 75.772, 92.3744)">
      <g>
       <text fill="#565656" font-family="Noto Sans" font-size="3" gorn="0.3.27.0.0.0.0.0.0" id="_x33_">3</text>
      </g>
     </g>
     <g transform="matrix(1, 0, 0, 1, 75.773, 99.5503)">
      <g>
       <text fill="#565656" font-family="Noto Sans" font-size="3" gorn="0.3.28.0.0.0.0.0.0" id="_x32_">2</text>
      </g>
     </g>
     <g transform="matrix(1, 0, 0, 1, 75.773, 106.748)">
      <g>
       <text fill="#565656" font-family="Noto Sans" font-size="3" gorn="0.3.29.0.0.0.0.0.0" id="_x31_">1</text>
      </g>
     </g>
    </g>
    <g gorn="0.4" id="pin_labels">
     <g transform="matrix(0.9957, 0, 0, 1, 10.267, 109.228)">
      <g>
       <text fill="#565656" font-family="Noto Sans" font-size="4.5" gorn="0.4.0.0.0.0.0.0.0" id="pin33-GPIO36">Vin</text>
      </g>
     </g>
     <g transform="matrix(1, 0, 0, 1, 10.267, 102.038)">
      <g>
       <text fill="#565656" font-family="Noto Sans" font-size="4.5" gorn="0.4.1.0.0.0.0.0.0" id="pin32-GPIO37">GND</text>
      </g>
     </g>
     <g transform="matrix(1.0032, 0, 0, 1, 10.268, 94.8484)">
      <g>
       <text fill="#565656" font-family="Noto Sans" font-size="4.5" gorn="0.4.2.0.0.0.0.0.0" id="pin31-GPIO38">RST</text>
      </g>
     </g>
     <g transform="matrix(1, 0, 0, 1, 10.267, 87.6445)">
      <g>
       <text fill="#565656" font-family="Noto Sans" font-size="4.5" gorn="0.4.3.0.0.0.0.0.0" id="pin30-GPIO39">EN</text>
      </g>
     </g>
     <g transform="matrix(1, 0, 0, 1, 10.267, 80.4406)">
      <g>
       <text fill="#565656" font-family="Noto Sans" font-size="4.5" gorn="0.4.4.0.0.0.0.0.0" id="pin29-GPIO34">3V3</text>
      </g>
     </g>
     <g transform="matrix(1.0002, 0, 0, 1, 10.268, 73.2427)">
      <g>
       <text fill="#565656" font-family="Noto Sans" font-size="4.5" gorn="0.4.5.0.0.0.0.0.0" id="pin28-GPIO35">GND</text>
      </g>
     </g>
     <g transform="matrix(1, 0, 0, 1, 10.267, 66.1129)">
      <g>
       <text fill="#565656" font-family="Noto Sans" font-size="4.5" gorn="0.4.6.0.0.0.0.0.0" id="pin27-GPIO32">CLK</text>
      </g>
     </g>
     <g transform="matrix(1.0021, 0, 0, 1, 10.268, 58.841)">
      <g>
       <text fill="#565656" font-family="Noto Sans" font-size="4.5" gorn="0.4.7.0.0.0.0.0.0" id="pin26-GPIO33">SD0</text>
      </g>
     </g>
     <g transform="matrix(1, 0, 0, 1, 10.267, 51.6411)">
      <g>
       <text fill="#565656" font-family="Noto Sans" font-size="4.5" gorn="0.4.8.0.0.0.0.0.0" id="pin25-GPIO25">CMD</text>
      </g>
     </g>
     <g transform="matrix(1, 0, 0, 1, 10.267, 44.4412)">
      <g>
       <text fill="#565656" font-family="Noto Sans" font-size="4.5" gorn="0.4.9.0.0.0.0.0.0" id="pin24-GPIO26">SD1</text>
      </g>
     </g>
     <g transform="matrix(1, 0, 0, 1, 10.267, 37.2424)">
      <g>
       <text fill="#565656" font-family="Noto Sans" font-size="4.5" gorn="0.4.10.0.0.0.0.0.0" id="pin23-GPIO27">SD2</text>
      </g>
     </g>
     <g transform="matrix(1, 0, 0, 1, 10.267, 30.0435)">
      <g>
       <text fill="#565656" font-family="Noto Sans" font-size="4.5" gorn="0.4.11.0.0.0.0.0.0" id="pin22-GPIO14">SD3</text>
      </g>
     </g>
     <g transform="matrix(1, 0, 0, 1, 10.267, 22.8446)">
      <g>
       <text fill="#565656" font-family="Noto Sans" font-size="4.5" gorn="0.4.12.0.0.0.0.0.0" id="pin21-GPIO12">RSV</text>
      </g>
     </g>
     <g transform="matrix(1, 0, 0, 1, 10.267, 15.6417)">
      <g>
       <text fill="#565656" font-family="Noto Sans" font-size="4.5" gorn="0.4.13.0.0.0.0.0.0" id="pin20-GPIO13">RSV</text>
      </g>
     </g>
     <g transform="matrix(1, 0, 0, 1, 10.267, 8.44225)">
      <g>
       <text fill="#565656" font-family="Noto Sans" font-size="4.5" gorn="0.4.14.0.0.0.0.0.0" id="pin19-GPIO21">A0</text>
      </g>
     </g>
     <g transform="matrix(0.9989, 0, 0, 1, 64.377, 8.37095)">
      <g>
       <text fill="#565656" font-family="Noto Sans" font-size="4.5" gorn="0.4.15.0.0.0.0.0.0" id="pin18-GPIO16">D0</text>
      </g>
     </g>
     <g transform="matrix(1, 0, 0, 1, 64.379, 15.5707)">
      <g>
       <text fill="#565656" font-family="Noto Sans" font-size="4.5" gorn="0.4.16.0.0.0.0.0.0" id="pin17-GPIO17">D1</text>
      </g>
     </g>
     <g transform="matrix(1, 0, 0, 1, 64.379, 22.7696)">
      <g>
       <text fill="#565656" font-family="Noto Sans" font-size="4.5" gorn="0.4.17.0.0.0.0.0.0" id="pin16-GPIO4">D2</text>
      </g>
     </g>
     <g transform="matrix(1, 0, 0, 1, 64.395, 29.9695)">
      <g>
       <text fill="#565656" font-family="Noto Sans" font-size="4.5" gorn="0.4.18.0.0.0.0.0.0" id="pin15-GPIO2">D3</text>
      </g>
     </g>
     <g transform="matrix(1, 0, 0, 1, 64.354, 37.1724)">
      <g>
       <text fill="#565656" font-family="Noto Sans" font-size="4.5" gorn="0.4.19.0.0.0.0.0.0" id="pin14-GPIO5">D4</text>
      </g>
     </g>
     <g transform="matrix(1, 0, 0, 1, 62.424, 44.3712)">
      <g>
       <text fill="#565656" font-family="Noto Sans" font-size="4.5" gorn="0.4.20.0.0.0.0.0.0" id="pin13-GPIO15">3V3</text>
      </g>
     </g>
     <g transform="matrix(1, 0, 0, 1, 60.489, 51.5701)">
      <g>
       <text fill="#565656" font-family="Noto Sans" font-size="4.5" gorn="0.4.21.0.0.0.0.0.0" id="pin12-GPIO18">GND</text>
      </g>
     </g>
     <g transform="matrix(1, 0, 0, 1, 64.411, 58.769)">
      <g>
       <text fill="#565656" font-family="Noto Sans" font-size="4.5" gorn="0.4.22.0.0.0.0.0.0" id="pin11-GPIO23">D5</text>
      </g>
     </g>
     <g transform="matrix(1, 0, 0, 1, 64.411, 65.9729)">
      <g>
       <text fill="#565656" font-family="Noto Sans" font-size="4.5" gorn="0.4.23.0.0.0.0.0.0" id="pin10-GPIO19">D6</text>
      </g>
     </g>
     <g transform="matrix(1, 0, 0, 1, 64.381, 73.1717)">
      <g>
       <text fill="#565656" font-family="Noto Sans" font-size="4.5" gorn="0.4.24.0.0.0.0.0.0" id="pin9-GPIO22">D7</text>
      </g>
     </g>
     <g transform="matrix(1, 0, 0, 1, 64.412, 80.3706)">
      <g>
       <text fill="#565656" font-family="Noto Sans" font-size="4.5" gorn="0.4.25.0.0.0.0.0.0" id="pin8-GPIO0">D8</text>
      </g>
     </g>
     <g transform="matrix(1, 0, 0, 1, 64.853, 87.5695)">
      <g>
       <text fill="#565656" font-family="Noto Sans" font-size="4.5" gorn="0.4.26.0.0.0.0.0.0" id="pin7_x3D_RST">RX</text>
      </g>
     </g>
     <g transform="matrix(1, 0, 0, 1, 65.111, 94.7684)">
      <g>
       <text fill="#565656" font-family="Noto Sans" font-size="4.5" gorn="0.4.27.0.0.0.0.0.0" id="pin6-TX">TX</text>
      </g>
     </g>
     <g transform="matrix(1, 0, 0, 1, 60.475, 101.968)">
      <g>
       <text fill="#565656" font-family="Noto Sans" font-size="4.5" gorn="0.4.28.0.0.0.0.0.0" id="pin5-RX">GND</text>
      </g>
     </g>
     <g transform="matrix(1, 0, 0, 1, 62.49, 109.168)">
      <g>
       <text fill="#565656" font-family="Noto Sans" font-size="4.5" gorn="0.4.29.0.0.0.0.0.0" id="pin4-GND">3V3</text>
      </g>
     </g>
     <g transform="matrix(1, 0, 0, 1, 31.493, 53.6951)">
      <g>
       <text font-family="Noto Sans" font-size="4.5">ESP8266</text>
      </g>
     </g>
     <g transform="matrix(1, 0, 0, 1, 29.754, 59.096)">
      <g>
       <text font-family="Noto Sans" font-size="4.5">NodeMCU</text>
      </g>
     </g>
     <g transform="matrix(1, 0, 0, 1, 37.02, 64.4949)">
      <g>
       <text font-family="Noto Sans" font-size="4.5">1.0</text>
      </g>
     </g>
    </g>
   </g>
  </g>
 </g>
 <g partID="61870">
  <g transform="translate(15.1013,135.329)">
   <g id="schematic">
    <rect fill="#FFFFFF" height="27.9" stroke="#000000" stroke-linecap="round" stroke-width="0.75" width="36" x="7.55" y="0.375"/>
    <g transform="matrix(1, 0, 0, 1, -1.8501, 25.8999)">
     <g>
      <g>
       <g>
        <g>
         <g>
          <g transform="matrix(1, 0, 0, 1, 10.7004, -18.0769)">
           <text fill="#8C8C8C" font-family="'DroidSans'" font-size="3.5">-IN</text>
          </g>
         </g>
        </g>
       </g>
      </g>
     </g>
    </g>
    <g transform="matrix(1, 0, 0, 1, -1.8501, 33.1001)">
     <g>
      <g>
       <g>
        <g>
         <g>
          <g transform="matrix(1, 0, 0, 1, 10.7004, -18.075)">
           <text fill="#8C8C8C" font-family="'DroidSans'" font-size="3.5" id="_x2B_IN">+IN</text>
          </g>
         </g>
        </g>
       </g>
      </g>
     </g>
    </g>
    <g transform="matrix(1, 0, 0, 1, 23.3853, 25.8999)">
     <g>
      <g>
       <g>
        <g>
         <g>
          <g transform="matrix(1, 0, 0, 1, 10.2385, -18.0769)">
           <text fill="#8C8C8C" font-family="'DroidSans'" font-size="3.5">OUT+</text>
          </g>
         </g>
        </g>
       </g>
      </g>
     </g>
    </g>
    <g transform="matrix(1, 0, 0, 1, 22.5835, 33.1001)">
     <g>
      <g>
       <g>
        <g>
         <g>
          <g transform="matrix(1, 0, 0, 1, 11.0403, -18.075)">
           <text fill="#8C8C8C" font-family="'DroidSans'" font-size="3.5">OUT-</text>
          </g>
         </g>
        </g>
       </g>
      </g>
     </g>
    </g>
    <g transform="matrix(1, 0, 0, 1, 17.1482, 21.4841)">
     <text font-family="'DroidSansMono'" font-size="4">Voltage</text>
    </g>
    <g transform="matrix(1, 0, 0, 1, 17.1482, 26.2849)">
     <text font-family="'DroidSansMono'" font-size="4">Booster</text>
    </g>
    <g cx="0.349" cy="7.125" fill="none" id="connector0terminal" r="0.142"/>
    <line fill="none" id="connector0pin" stroke="#919191" stroke-linecap="round" stroke-width="0.7" x1="7.55" x2="0.349" y1="7.125" y2="7.125"/>
    <g cx="0.35" cy="14.324" fill="none" id="connector1terminal" r="0.142"/>
    <line fill="none" id="connector1pin" stroke="#919191" stroke-linecap="round" stroke-width="0.7" x1="7.55" x2="0.349" y1="14.325" y2="14.325"/>
    <g cx="50.749" cy="7.125" fill="none" id="connector2terminal" r="0.142"/>
    <line fill="none" id="connector2pin" stroke="#919191" stroke-linecap="round" stroke-width="0.7" x1="50.748" x2="43.55" y1="7.125" y2="7.125"/>
    <g cx="50.749" cy="14.324" fill="none" id="connector3terminal" r="0.142"/>
    <line fill="none" id="connector3pin" stroke="#919191" stroke-linecap="round" stroke-width="0.7" x1="50.748" x2="43.55" y1="14.325" y2="14.325"/>
   </g>
  </g>
 </g>
 <g partID="73780">
  <g transform="translate(152.229,131.645)">
   <g id="schematic" >
    <line fill="none" id="connector0pin" stroke="#000000" stroke-linecap="round" stroke-linejoin="round" stroke-width="0.7" x1="0.35" x2="7.346"  y1="3.6" y2="3.6"/>
    <g fill="none" height="0.208" id="connector0terminal" width="0.546" x="-0.252"  y="3.504"/>
    <polyline fill="none" points="14.1,5.557,9.928,3.6,14.1,1.643" stroke="#000000" stroke-linecap="round" stroke-linejoin="round" stroke-width="0.7" />
    <line fill="none" id="line" stroke="#000000" stroke-linecap="round" stroke-linejoin="round" stroke-width="0.7" x1="10.11" x2="4.804"  y1="3.6" y2="3.6"/>
    <text class="text" fill="#8c8c8c" font-family="'Droid Sans'" font-size="2.5" stroke="none" stroke-width="0" text-anchor="middle" x="5.05"  y="2.58">1</text>
    <line fill="none" id="connector1pin" stroke="#000000" stroke-linecap="round" stroke-linejoin="round" stroke-width="0.7" x1="0.35" x2="7.346"  y1="10.8" y2="10.8"/>
    <g fill="none" height="0.208" id="connector1terminal" width="0.546" x="-0.252"  y="10.704"/>
    <polyline fill="none" points="14.1,12.757,9.928,10.8,14.1,8.843" stroke="#000000" stroke-linecap="round" stroke-linejoin="round" stroke-width="0.7" />
    <line fill="none" id="line" stroke="#000000" stroke-linecap="round" stroke-linejoin="round" stroke-width="0.7" x1="10.11" x2="4.804"  y1="10.8" y2="10.8"/>
    <text class="text" fill="#8c8c8c" font-family="'Droid Sans'" font-size="2.5" stroke="none" stroke-width="0" text-anchor="middle" x="5.05"  y="9.78">2</text>
    <line fill="none" id="connector2pin" stroke="#000000" stroke-linecap="round" stroke-linejoin="round" stroke-width="0.7" x1="0.35" x2="7.346"  y1="18" y2="18"/>
    <g fill="none" height="0.208" id="connector2terminal" width="0.546" x="-0.252"  y="17.904"/>
    <polyline fill="none" points="14.1,19.957,9.928,18,14.1,16.043" stroke="#000000" stroke-linecap="round" stroke-linejoin="round" stroke-width="0.7" />
    <line fill="none" id="line" stroke="#000000" stroke-linecap="round" stroke-linejoin="round" stroke-width="0.7" x1="10.11" x2="4.804"  y1="18" y2="18"/>
    <text class="text" fill="#8c8c8c" font-family="'Droid Sans'" font-size="2.5" stroke="none" stroke-width="0" text-anchor="middle" x="5.05"  y="16.98">3</text>
    <line fill="none" id="connector3pin" stroke="#000000" stroke-linecap="round" stroke-linejoin="round" stroke-width="0.7" x1="0.35" x2="7.346"  y1="25.2" y2="25.2"/>
    <g fill="none" height="0.208" id="connector3terminal" width="0.546" x="-0.252"  y="25.104"/>
    <polyline fill="none" points="14.1,27.157,9.928,25.2,14.1,23.243" stroke="#000000" stroke-linecap="round" stroke-linejoin="round" stroke-width="0.7" />
    <line fill="none" id="line" stroke="#000000" stroke-linecap="round" stroke-linejoin="round" stroke-width="0.7" x1="10.11" x2="4.804"  y1="25.2" y2="25.2"/>
    <text class="text" fill="#8c8c8c" font-family="'Droid Sans'" font-size="2.5" stroke="none" stroke-width="0" text-anchor="middle" x="5.05"  y="24.18">4</text>
   </g>
  </g>
 </g>
 <g partID="75130">
  <line stroke="#cc1414" stroke-linecap="round" stroke-width="0.699998" x1="8.25029" x2="8.22929" y1="149.653" y2="113.649"/>
 </g>
 <circle cx="8.25029" cy="149.653" fill="black" r="0.72" stroke="none" stroke-width="0"/>
 <g partID="61920">
  <line stroke="#cc1414" stroke-linecap="round" stroke-width="0.699998" x1="15.4513" x2="8.25029" y1="149.653" y2="149.653"/>
 </g>
 <circle cx="8.25029" cy="149.653" fill="black" r="0.72" stroke="none" stroke-width="0"/>
 <g partID="74910">
  <line stroke="#404040" stroke-linecap="round" stroke-width="0.699998" x1="1.05029" x2="8.22929" y1="106.453" y2="106.449"/>
 </g>
 <circle cx="1.05029" cy="106.453" fill="black" r="0.72" stroke="none" stroke-width="0"/>
 <g partID="61990">
  <line stroke="#404040" stroke-linecap="round" stroke-width="0.699998" x1="15.4503" x2="1.05029" y1="142.454" y2="142.453"/>
 </g>
 <circle cx="1.05029" cy="142.453" fill="black" r="0.72" stroke="none" stroke-width="0"/>
 <g partID="75020">
  <line stroke="#404040" stroke-linecap="round" stroke-width="0.699998" x1="1.05029" x2="1.05029" y1="142.453" y2="106.453"/>
 </g>
 <circle cx="1.05029" cy="142.453" fill="black" r="0.72" stroke="none" stroke-width="0"/>
 <circle cx="1.05029" cy="106.453" fill="black" r="0.72" stroke="none" stroke-width="0"/>
 <g partID="72590">
  <line stroke="#404040" stroke-linecap="round" stroke-width="0.699998" x1="152.25" x2="101.85" y1="135.253" y2="135.253"/>
 </g>
 <circle cx="101.85" cy="135.253" fill="black" r="0.72" stroke="none" stroke-width="0"/>
 <g partID="74550">
  <line stroke="#404040" stroke-linecap="round" stroke-width="0.699998" x1="101.85" x2="101.85" y1="135.253" y2="149.653"/>
 </g>
 <circle cx="101.85" cy="135.253" fill="black" r="0.72" stroke="none" stroke-width="0"/>
 <circle cx="101.85" cy="149.653" fill="black" r="0.72" stroke="none" stroke-width="0"/>
 <g partID="74660">
  <line stroke="#404040" stroke-linecap="round" stroke-width="0.699998" x1="101.85" x2="65.8503" y1="149.653" y2="149.653"/>
 </g>
 <circle cx="101.85" cy="149.653" fill="black" r="0.72" stroke="none" stroke-width="0"/>
 <g partID="72700">
  <line stroke="#cc1414" stroke-linecap="round" stroke-width="0.699998" x1="152.25" x2="65.8503" y1="142.453" y2="142.454"/>
 </g>
 <g partID="74840">
  <line stroke="#404040" stroke-linecap="round" stroke-width="0.699998" x1="137.85" x2="137.85" y1="156.853" y2="63.2529"/>
 </g>
 <circle cx="137.85" cy="156.853" fill="black" r="0.72" stroke="none" stroke-width="0"/>
 <circle cx="137.85" cy="63.2529" fill="black" r="0.72" stroke="none" stroke-width="0"/>
 <g partID="72790">
  <line stroke="#404040" stroke-linecap="round" stroke-width="0.699998" x1="152.25" x2="137.85" y1="156.853" y2="156.853"/>
 </g>
 <circle cx="137.85" cy="156.853" fill="black" r="0.72" stroke="none" stroke-width="0"/>
 <g partID="74770">
  <line stroke="#404040" stroke-linecap="round" stroke-width="0.699998" x1="137.85" x2="88.4522" y1="63.2529" y2="63.251"/>
 </g>
 <circle cx="137.85" cy="63.2529" fill="black" r="0.72" stroke="none" stroke-width="0"/>
 <g id="partLabel" partID="59980">
  <g transform="translate(88.4153,0)">
   <g fill="#000000" fill-opacity="1" font-family="'DroidSans'" font-size="5.000" font-style="normal" font-weight="normal" id="schematicLabel" stroke="none">
    <text x="0" y="5.000">Controller</text>
   </g>
  </g>
 </g>
 <g id="partLabel" partID="61870">
  <g transform="translate(66.2013,129.729)">
   <g fill="#000000" fill-opacity="1" font-family="'DroidSans'" font-size="5.000" font-style="normal" font-weight="normal" id="schematicLabel" stroke="none">
    <text x="0" y="5.000">5v to 12v</text>
   </g>
  </g>
 </g>
 <g id="partLabel" partID="73780">
  <g transform="translate(166.629,126.045)">
   <g fill="#000000" fill-opacity="1" font-family="'DroidSans'" font-size="5.000" font-style="normal" font-weight="normal" id="schematicLabel" stroke="none">
    <text x="0" y="5.000">12v 4pin PWM Fan</text>
   </g>
  </g>
 </g>
</svg>
